<?xml version="1.0" encoding="iso-8859-1"?>
<!-- Generator: Adobe Illustrator 19.0.0, SVG Export Plug-In . SVG Version: 6.00 Build 0)  -->
<svg version="1.1" id="Capa_1" xmlns="http://www.w3.org/2000/svg" xmlns:xlink="http://www.w3.org/1999/xlink" x="0px" y="0px"
	 viewBox="0 0 490 490" style="enable-background:new 0 0 490 490;" xml:space="preserve">
<g>
	<g>
		<g>
			<path d="M110.326,489.922H36.601V357.738h73.725V489.922z M51.911,474.612h43.105V373.048H51.911V474.612z"/>
		</g>
		<g>
			<path d="M205.237,489.922h-73.725V290.95h73.725V489.922z M146.822,474.612h43.105V306.26h-43.105V474.612z"/>
		</g>
		<g>
			<path d="M300.163,489.922h-73.725V215.805h73.725V489.922z M241.748,474.612h43.105V231.115h-43.105V474.612z"/>
		</g>
		<g>
			<path d="M395.074,489.922h-73.725V140.675h73.725V489.922z M336.659,474.612h43.105V155.985h-43.105V474.612z"/>
		</g>
		<g>
			<path d="M490,489.922h-73.725V90.573H490V489.922z M431.585,474.612h43.105V105.883h-43.105V474.612z"/>
		</g>
	</g>
	<g>
		<path d="M0,306.114L348.397,28.639L333.43,9.594l65.628-9.516L374.465,61.81l-14.967-19.046L12.904,320.992
			C12.904,320.992,0.513,306.295,0,306.114z"/>
	</g>
</g>
<g>
</g>
<g>
</g>
<g>
</g>
<g>
</g>
<g>
</g>
<g>
</g>
<g>
</g>
<g>
</g>
<g>
</g>
<g>
</g>
<g>
</g>
<g>
</g>
<g>
</g>
<g>
</g>
<g>
</g>
</svg>
